<svg id="visual" viewBox="0 0 960 540" width="960" height="540" xmlns="http://www.w3.org/2000/svg" xmlns:xlink="http://www.w3.org/1999/xlink" version="1.1"><rect x="0" y="0" width="960" height="540" fill="#8B72BD"></rect><defs><linearGradient id="grad1_0" x1="43.8%" y1="100%" x2="100%" y2="0%"><stop offset="14.444444444444446%" stop-color="#00c9a4" stop-opacity="1"></stop><stop offset="85.55555555555554%" stop-color="#00c9a4" stop-opacity="1"></stop></linearGradient></defs><defs><linearGradient id="grad1_1" x1="43.8%" y1="100%" x2="100%" y2="0%"><stop offset="14.444444444444446%" stop-color="#00c9a4" stop-opacity="1"></stop><stop offset="85.55555555555554%" stop-color="#00bbca" stop-opacity="1"></stop></linearGradient></defs><defs><linearGradient id="grad1_2" x1="43.8%" y1="100%" x2="100%" y2="0%"><stop offset="14.444444444444446%" stop-color="#00a8e0" stop-opacity="1"></stop><stop offset="85.55555555555554%" stop-color="#00bbca" stop-opacity="1"></stop></linearGradient></defs><defs><linearGradient id="grad1_3" x1="43.8%" y1="100%" x2="100%" y2="0%"><stop offset="14.444444444444446%" stop-color="#00a8e0" stop-opacity="1"></stop><stop offset="85.55555555555554%" stop-color="#468fdc" stop-opacity="1"></stop></linearGradient></defs><defs><linearGradient id="grad1_4" x1="43.8%" y1="100%" x2="100%" y2="0%"><stop offset="14.444444444444446%" stop-color="#8b72bd" stop-opacity="1"></stop><stop offset="85.55555555555554%" stop-color="#468fdc" stop-opacity="1"></stop></linearGradient></defs><defs><linearGradient id="grad2_0" x1="0%" y1="100%" x2="56.3%" y2="0%"><stop offset="14.444444444444446%" stop-color="#00c9a4" stop-opacity="1"></stop><stop offset="85.55555555555554%" stop-color="#00c9a4" stop-opacity="1"></stop></linearGradient></defs><defs><linearGradient id="grad2_1" x1="0%" y1="100%" x2="56.3%" y2="0%"><stop offset="14.444444444444446%" stop-color="#00bbca" stop-opacity="1"></stop><stop offset="85.55555555555554%" stop-color="#00c9a4" stop-opacity="1"></stop></linearGradient></defs><defs><linearGradient id="grad2_2" x1="0%" y1="100%" x2="56.3%" y2="0%"><stop offset="14.444444444444446%" stop-color="#00bbca" stop-opacity="1"></stop><stop offset="85.55555555555554%" stop-color="#00a8e0" stop-opacity="1"></stop></linearGradient></defs><defs><linearGradient id="grad2_3" x1="0%" y1="100%" x2="56.3%" y2="0%"><stop offset="14.444444444444446%" stop-color="#468fdc" stop-opacity="1"></stop><stop offset="85.55555555555554%" stop-color="#00a8e0" stop-opacity="1"></stop></linearGradient></defs><defs><linearGradient id="grad2_4" x1="0%" y1="100%" x2="56.3%" y2="0%"><stop offset="14.444444444444446%" stop-color="#468fdc" stop-opacity="1"></stop><stop offset="85.55555555555554%" stop-color="#8b72bd" stop-opacity="1"></stop></linearGradient></defs><g transform="translate(960, 540)"><path d="M-243 0C-242.8 -26.5 -242.6 -53 -231.1 -75.1C-219.6 -97.1 -196.8 -114.7 -176.4 -128.1C-156 -141.5 -137.9 -150.8 -122.3 -168.3C-106.6 -185.8 -93.2 -211.6 -73.2 -225.4C-53.2 -239.2 -26.6 -241.1 0 -243L0 0Z" fill="#6f81cf"></path><path d="M-194.4 0C-194.2 -21.2 -194.1 -42.4 -184.9 -60.1C-175.7 -77.7 -157.4 -91.8 -141.1 -102.5C-124.8 -113.2 -110.4 -120.6 -97.8 -134.6C-85.3 -148.6 -74.6 -169.3 -58.6 -180.3C-42.6 -191.4 -21.3 -192.9 0 -194.4L0 0Z" fill="#009ce1"></path><path d="M-145.8 0C-145.7 -15.9 -145.6 -31.8 -138.7 -45.1C-131.8 -58.3 -118.1 -68.8 -105.8 -76.9C-93.6 -84.9 -82.8 -90.5 -73.4 -101C-63.9 -111.5 -55.9 -126.9 -43.9 -135.2C-31.9 -143.5 -16 -144.7 0 -145.8L0 0Z" fill="#00b2d8"></path><path d="M-97.2 0C-97.1 -10.6 -97 -21.2 -92.4 -30C-87.8 -38.9 -78.7 -45.9 -70.5 -51.3C-62.4 -56.6 -55.2 -60.3 -48.9 -67.3C-42.6 -74.3 -37.3 -84.6 -29.3 -90.2C-21.3 -95.7 -10.6 -96.4 0 -97.2L0 0Z" fill="#00c3b8"></path><path d="M-48.6 0C-48.6 -5.3 -48.5 -10.6 -46.2 -15C-43.9 -19.4 -39.4 -22.9 -35.3 -25.6C-31.2 -28.3 -27.6 -30.2 -24.5 -33.7C-21.3 -37.2 -18.6 -42.3 -14.6 -45.1C-10.6 -47.8 -5.3 -48.2 0 -48.6L0 0Z" fill="#00c9a4"></path></g><g transform="translate(0, 0)"><path d="M243 0C246.2 28.8 249.3 57.5 231.1 75.1C212.9 92.7 173.4 99 149.7 108.7C126 118.5 118.2 131.6 107.6 148.1C97 164.5 83.6 184.3 65.2 200.7C46.8 217.1 23.4 230 0 243L0 0Z" fill="#6f81cf"></path><path d="M194.4 0C196.9 23 199.4 46 184.9 60.1C170.3 74.1 138.7 79.2 119.7 87C100.8 94.8 94.5 105.3 86.1 118.4C77.6 131.6 66.9 147.4 52.2 160.5C37.4 173.6 18.7 184 0 194.4L0 0Z" fill="#009ce1"></path><path d="M145.8 0C147.7 17.3 149.6 34.5 138.7 45.1C127.7 55.6 104 59.4 89.8 65.2C75.6 71.1 70.9 79 64.5 88.8C58.2 98.7 50.2 110.6 39.1 120.4C28.1 130.2 14 138 0 145.8L0 0Z" fill="#00b2d8"></path><path d="M97.2 0C98.5 11.5 99.7 23 92.4 30C85.2 37.1 69.3 39.6 59.9 43.5C50.4 47.4 47.3 52.6 43 59.2C38.8 65.8 33.4 73.7 26.1 80.3C18.7 86.8 9.4 92 0 97.2L0 0Z" fill="#00c3b8"></path><path d="M48.6 0C49.2 5.8 49.9 11.5 46.2 15C42.6 18.5 34.7 19.8 29.9 21.7C25.2 23.7 23.6 26.3 21.5 29.6C19.4 32.9 16.7 36.9 13 40.1C9.4 43.4 4.7 46 0 48.6L0 0Z" fill="#00c9a4"></path></g></svg>